<svg width="388" height="366" viewBox="0 0 388 366" fill="none" xmlns="http://www.w3.org/2000/svg"><path d="m8.149 238.448-1.812-1.812c-7.848-7.848-7.848-20.527 0-28.376L128.9 85.498c7.848-7.85 20.527-7.85 28.376 0l66.211 66.211L352.085 7.211c7.647-8.653 21.131-8.855 29.181-.805 7.447 7.648 7.849 19.723.805 27.572L237.775 196.385c-7.648 8.654-20.93 9.057-29.181.805l-65.407-65.406L36.525 238.448c-7.647 7.848-20.527 7.848-28.376 0Zm28.376 120.75 106.662-106.663 65.407 65.406c8.251 8.252 21.533 7.849 29.181-.805l144.296-162.408c7.044-7.849 6.642-19.924-.805-27.572-8.05-8.05-21.534-7.848-29.181.805L223.486 272.459l-66.211-66.211c-7.849-7.849-20.528-7.849-28.376 0L6.337 329.01c-7.848 7.849-7.848 20.528 0 28.376l1.812 1.812c7.849 7.848 20.729 7.848 28.376 0Z" fill="#36B7FF"/></svg>